<?xml version="1.0" encoding="UTF-8"?>
<svg xmlns="http://www.w3.org/2000/svg" xmlns:xlink="http://www.w3.org/1999/xlink" width="100px" height="100px" viewBox="0 0 100 100" version="1.1">
<defs>
<filter id="alpha" filterUnits="objectBoundingBox" x="0%" y="0%" width="100%" height="100%">
  <feColorMatrix type="matrix" in="SourceGraphic" values="0 0 0 0 1 0 0 0 0 1 0 0 0 0 1 0 0 0 1 0"/>
</filter>
<mask id="mask0">
  <g filter="url(#alpha)">
<rect x="0" y="0" width="100" height="100" style="fill:rgb(0%,0%,0%);fill-opacity:0.2;stroke:none;"/>
  </g>
</mask>
<clipPath id="clip1">
  <rect x="0" y="0" width="100" height="100"/>
</clipPath>
<g id="surface5" clip-path="url(#clip1)">
<path style=" stroke:none;fill-rule:nonzero;fill:rgb(0%,0%,0%);fill-opacity:1;" d="M 58.039062 98.613281 C 58.199219 98.578125 58.359375 98.535156 58.515625 98.496094 C 58.65625 98.460938 58.796875 98.425781 58.9375 98.386719 C 58.945312 98.09375 58.953125 97.769531 58.964844 97.417969 C 59.050781 94.671875 59.257812 90.253906 59.742188 84.925781 C 59.769531 84.640625 59.796875 84.355469 59.824219 84.066406 C 59.996094 82.261719 60.199219 80.363281 60.441406 78.394531 C 60.449219 78.328125 60.457031 78.265625 60.464844 78.203125 C 60.660156 76.605469 60.882812 74.96875 61.136719 73.300781 C 61.3125 72.132812 61.503906 70.953125 61.707031 69.761719 C 61.722656 69.675781 61.738281 69.59375 61.75 69.511719 C 61.8125 69.164062 61.871094 68.824219 61.933594 68.476562 C 62.105469 67.511719 62.292969 66.542969 62.484375 65.574219 C 63.167969 62.167969 63.980469 58.738281 64.949219 55.402344 C 65.933594 51.941406 67.144531 48.550781 68.578125 45.253906 C 69.6875 42.691406 71.011719 40.222656 72.53125 37.882812 C 72.554688 37.847656 72.578125 37.816406 72.597656 37.78125 C 74.542969 34.851562 76.769531 32.363281 79.304688 30.503906 L 78.78125 29.785156 C 76.347656 31.566406 74.117188 33.941406 72.085938 36.902344 C 72.078125 36.914062 72.066406 36.929688 72.058594 36.945312 C 70.53125 39.207031 69.199219 41.59375 68.074219 44.082031 C 66.570312 47.410156 65.300781 50.839844 64.277344 54.34375 C 63.304688 57.601562 62.4375 61.132812 61.664062 64.933594 C 61.394531 66.269531 61.136719 67.640625 60.890625 69.046875 C 60.847656 69.285156 60.808594 69.527344 60.765625 69.769531 C 60.765625 69.769531 60.765625 69.773438 60.765625 69.777344 C 60.703125 70.148438 60.640625 70.519531 60.578125 70.890625 C 60.425781 71.835938 60.28125 72.769531 60.144531 73.695312 C 59.933594 75.125 59.742188 76.53125 59.574219 77.910156 C 59.519531 78.367188 59.464844 78.816406 59.410156 79.265625 C 59.335938 79.898438 59.265625 80.523438 59.203125 81.140625 C 59.109375 82 59.023438 82.839844 58.945312 83.660156 L 58.921875 83.886719 C 58.910156 84.015625 58.898438 84.144531 58.886719 84.273438 C 58.285156 90.753906 58.097656 95.984375 58.039062 98.613281 Z M 58.039062 98.613281 "/>
</g>
<mask id="mask1">
  <g filter="url(#alpha)">
<rect x="0" y="0" width="100" height="100" style="fill:rgb(0%,0%,0%);fill-opacity:0.2;stroke:none;"/>
  </g>
</mask>
<clipPath id="clip2">
  <rect x="0" y="0" width="100" height="100"/>
</clipPath>
<g id="surface8" clip-path="url(#clip2)">
<path style=" stroke:none;fill-rule:nonzero;fill:rgb(0%,0%,0%);fill-opacity:1;" d="M 69.378906 94.367188 C 69.394531 94.355469 69.414062 94.347656 69.429688 94.339844 C 69.734375 94.179688 70.035156 94.019531 70.339844 93.855469 C 70.4375 92.671875 70.570312 91.375 70.746094 90.011719 C 70.78125 89.730469 70.820312 89.445312 70.859375 89.160156 C 70.882812 89.003906 70.902344 88.847656 70.925781 88.691406 C 71.101562 87.492188 71.308594 86.25 71.554688 85.007812 C 72.566406 79.921875 74.242188 74.726562 77.03125 71.519531 C 77.179688 71.347656 77.332031 71.183594 77.488281 71.019531 C 77.882812 70.613281 78.308594 70.238281 78.761719 69.902344 L 78.238281 69.1875 C 77.601562 69.65625 77.015625 70.191406 76.492188 70.78125 C 76.304688 70.988281 76.125 71.203125 75.949219 71.425781 C 73.386719 74.652344 71.785156 79.425781 70.789062 84.15625 C 70.527344 85.390625 70.308594 86.621094 70.121094 87.824219 C 70.074219 88.136719 70.03125 88.445312 69.988281 88.753906 C 69.699219 90.785156 69.507812 92.707031 69.378906 94.367188 Z M 69.378906 94.367188 "/>
</g>
<mask id="mask2">
  <g filter="url(#alpha)">
<rect x="0" y="0" width="100" height="100" style="fill:rgb(0%,0%,0%);fill-opacity:0.2;stroke:none;"/>
  </g>
</mask>
<clipPath id="clip3">
  <rect x="0" y="0" width="100" height="100"/>
</clipPath>
<g id="surface11" clip-path="url(#clip3)">
<path style=" stroke:none;fill-rule:nonzero;fill:rgb(0%,0%,0%);fill-opacity:1;" d="M 88.730469 26.03125 C 88.730469 28.492188 86.738281 30.484375 84.28125 30.484375 C 81.824219 30.484375 79.828125 28.492188 79.828125 26.03125 C 79.828125 23.574219 81.824219 21.582031 84.28125 21.582031 C 86.738281 21.582031 88.730469 23.574219 88.730469 26.03125 Z M 88.730469 26.03125 "/>
</g>
<mask id="mask3">
  <g filter="url(#alpha)">
<rect x="0" y="0" width="100" height="100" style="fill:rgb(0%,0%,0%);fill-opacity:0.2;stroke:none;"/>
  </g>
</mask>
<clipPath id="clip4">
  <rect x="0" y="0" width="100" height="100"/>
</clipPath>
<g id="surface14" clip-path="url(#clip4)">
<path style=" stroke:none;fill-rule:nonzero;fill:rgb(0%,0%,0%);fill-opacity:1;" d="M 87.296875 64.347656 C 87.296875 66.804688 85.304688 68.796875 82.847656 68.796875 C 80.390625 68.796875 78.394531 66.804688 78.394531 64.347656 C 78.394531 61.890625 80.390625 59.898438 82.847656 59.898438 C 85.304688 59.898438 87.296875 61.890625 87.296875 64.347656 Z M 87.296875 64.347656 "/>
</g>
<mask id="mask4">
  <g filter="url(#alpha)">
<rect x="0" y="0" width="100" height="100" style="fill:rgb(0%,0%,0%);fill-opacity:0.2;stroke:none;"/>
  </g>
</mask>
<clipPath id="clip5">
  <rect x="0" y="0" width="100" height="100"/>
</clipPath>
<g id="surface17" clip-path="url(#clip5)">
<path style=" stroke:none;fill-rule:nonzero;fill:rgb(0%,0%,0%);fill-opacity:1;" d="M 66.609375 33.507812 C 67.554688 38.835938 65.46875 43.65625 65.46875 43.65625 C 65.46875 43.65625 61.855469 39.84375 60.914062 34.519531 C 59.96875 29.195312 62.050781 24.371094 62.050781 24.371094 C 62.050781 24.371094 65.667969 28.183594 66.609375 33.507812 Z M 66.609375 33.507812 "/>
</g>
<mask id="mask5">
  <g filter="url(#alpha)">
<rect x="0" y="0" width="100" height="100" style="fill:rgb(0%,0%,0%);fill-opacity:0.2;stroke:none;"/>
  </g>
</mask>
<clipPath id="clip6">
  <rect x="0" y="0" width="100" height="100"/>
</clipPath>
<g id="surface20" clip-path="url(#clip6)">
<path style=" stroke:none;fill-rule:nonzero;fill:rgb(0%,0%,0%);fill-opacity:1;" d="M 81.402344 46.148438 C 76.324219 48.007812 71.21875 46.816406 71.21875 46.816406 C 71.21875 46.816406 74.351562 42.613281 79.429688 40.753906 C 84.507812 38.898438 89.613281 40.089844 89.613281 40.089844 C 89.613281 40.089844 86.480469 44.292969 81.402344 46.148438 Z M 81.402344 46.148438 "/>
</g>
<mask id="mask6">
  <g filter="url(#alpha)">
<rect x="0" y="0" width="100" height="100" style="fill:rgb(0%,0%,0%);fill-opacity:0.2;stroke:none;"/>
  </g>
</mask>
<clipPath id="clip7">
  <rect x="0" y="0" width="100" height="100"/>
</clipPath>
<g id="surface23" clip-path="url(#clip7)">
<path style=" stroke:none;fill-rule:nonzero;fill:rgb(0%,0%,0%);fill-opacity:1;" d="M 82.265625 80.078125 C 78.703125 81.378906 75.121094 80.53125 75.121094 80.53125 C 75.121094 80.53125 77.3125 77.570312 80.871094 76.269531 C 84.429688 74.96875 88.011719 75.816406 88.011719 75.816406 C 88.011719 75.816406 85.824219 78.777344 82.265625 80.078125 Z M 82.265625 80.078125 "/>
</g>
</defs>
<g id="surface1">
<path style=" stroke:none;fill-rule:nonzero;fill:rgb(89.411765%,84.705882%,90.196078%);fill-opacity:1;" d="M 100 50 C 100.007812 56.421875 98.773438 62.789062 96.367188 68.742188 C 96.363281 68.757812 96.359375 68.769531 96.351562 68.78125 C 94.734375 72.769531 92.605469 76.53125 90.023438 79.972656 C 89.523438 80.636719 89.007812 81.289062 88.480469 81.925781 C 88.285156 82.160156 88.089844 82.394531 87.890625 82.621094 C 86.878906 83.796875 85.8125 84.925781 84.695312 86.003906 C 84.433594 86.253906 84.171875 86.503906 83.902344 86.75 C 83.839844 86.804688 83.78125 86.863281 83.71875 86.921875 C 82.414062 88.109375 81.050781 89.230469 79.628906 90.277344 C 78.671875 90.984375 77.695312 91.652344 76.6875 92.289062 C 76.46875 92.429688 76.246094 92.566406 76.023438 92.703125 C 75.636719 92.9375 75.246094 93.171875 74.851562 93.394531 C 74.335938 93.691406 73.816406 93.980469 73.285156 94.257812 C 73.074219 94.371094 72.859375 94.480469 72.644531 94.589844 C 72.332031 94.75 72.015625 94.90625 71.699219 95.058594 C 71.644531 95.085938 71.589844 95.109375 71.535156 95.136719 C 71.328125 95.238281 71.117188 95.335938 70.90625 95.433594 C 68.171875 96.695312 65.324219 97.703125 62.40625 98.449219 C 62.390625 98.453125 62.375 98.457031 62.359375 98.460938 C 62.167969 98.507812 61.976562 98.554688 61.785156 98.601562 C 61.640625 98.636719 61.496094 98.671875 61.351562 98.703125 C 61.332031 98.710938 61.3125 98.714844 61.296875 98.71875 C 61 98.785156 60.703125 98.855469 60.402344 98.914062 C 60.230469 98.949219 60.0625 98.984375 59.894531 99.019531 C 59.792969 99.042969 59.6875 99.0625 59.585938 99.078125 C 59.457031 99.105469 59.332031 99.128906 59.203125 99.152344 C 59.132812 99.167969 59.0625 99.179688 58.988281 99.191406 C 58.824219 99.222656 58.664062 99.25 58.5 99.28125 C 58.226562 99.328125 57.949219 99.371094 57.671875 99.414062 C 57.46875 99.445312 57.269531 99.476562 57.070312 99.503906 C 56.832031 99.535156 56.597656 99.566406 56.359375 99.597656 C 56.292969 99.609375 56.226562 99.617188 56.164062 99.621094 C 56.078125 99.632812 55.992188 99.644531 55.910156 99.652344 C 55.738281 99.675781 55.570312 99.695312 55.398438 99.710938 C 55.308594 99.722656 55.222656 99.730469 55.132812 99.738281 C 54.964844 99.757812 54.796875 99.773438 54.628906 99.789062 C 54.410156 99.808594 54.191406 99.828125 53.972656 99.84375 C 53.707031 99.867188 53.441406 99.882812 53.175781 99.902344 C 53.003906 99.910156 52.832031 99.921875 52.660156 99.929688 C 52.21875 99.953125 51.777344 99.96875 51.332031 99.980469 C 51.113281 99.988281 50.890625 99.992188 50.667969 99.996094 L 50.664062 99.996094 C 50.445312 100 50.222656 100 50 100 C 47.75 100 45.503906 99.851562 43.277344 99.550781 C 41.640625 99.332031 40.035156 99.035156 38.453125 98.660156 C 38.386719 98.644531 38.324219 98.628906 38.261719 98.613281 C 38.101562 98.578125 37.945312 98.535156 37.785156 98.496094 C 37.644531 98.460938 37.507812 98.425781 37.367188 98.386719 C 33.742188 97.445312 30.238281 96.097656 26.921875 94.367188 C 26.90625 94.355469 26.886719 94.347656 26.871094 94.339844 C 26.773438 94.289062 26.679688 94.238281 26.585938 94.1875 C 26.378906 94.078125 26.167969 93.96875 25.964844 93.855469 C 24.785156 93.207031 23.640625 92.515625 22.523438 91.78125 C 22.238281 91.589844 21.953125 91.402344 21.671875 91.207031 C 21.582031 91.144531 21.492188 91.082031 21.40625 91.019531 C 21.3125 90.957031 21.21875 90.890625 21.128906 90.824219 C 20.882812 90.652344 20.640625 90.476562 20.398438 90.300781 C 19.402344 89.566406 18.433594 88.796875 17.492188 87.992188 C 14.164062 85.140625 11.222656 81.863281 8.742188 78.25 C 7.875 76.988281 7.066406 75.6875 6.316406 74.347656 C 2.160156 66.90625 -0.015625 58.523438 0 50 C 0 22.386719 22.386719 0 50 0 C 77.613281 0 100 22.386719 100 50 Z M 100 50 "/>
<use xlink:href="#surface5" mask="url(#mask0)"/>
<use xlink:href="#surface8" mask="url(#mask1)"/>
<use xlink:href="#surface11" mask="url(#mask2)"/>
<use xlink:href="#surface14" mask="url(#mask3)"/>
<use xlink:href="#surface17" mask="url(#mask4)"/>
<use xlink:href="#surface20" mask="url(#mask5)"/>
<use xlink:href="#surface23" mask="url(#mask6)"/>
<path style=" stroke:none;fill-rule:nonzero;fill:rgb(18.431373%,18.039216%,25.490196%);fill-opacity:1;" d="M 65.082031 79.328125 L 65.261719 79.421875 C 65.246094 79.617188 65.203125 79.734375 65.082031 79.328125 Z M 65.082031 79.328125 "/>
<path style=" stroke:none;fill-rule:nonzero;fill:rgb(18.431373%,18.039216%,25.490196%);fill-opacity:1;" d="M 65.320312 79.390625 C 65.324219 79.414062 65.324219 79.433594 65.328125 79.457031 L 65.261719 79.421875 C 65.265625 79.402344 65.265625 79.382812 65.269531 79.363281 C 65.285156 79.105469 65.265625 78.796875 65.320312 79.390625 Z M 65.320312 79.390625 "/>
<path style=" stroke:none;fill-rule:nonzero;fill:rgb(18.431373%,18.039216%,25.490196%);fill-opacity:1;" d="M 70.398438 48.023438 C 70.398438 61.441406 59.523438 72.316406 46.105469 72.316406 C 32.691406 72.316406 21.816406 61.441406 21.816406 48.023438 C 21.816406 34.609375 32.691406 23.734375 46.105469 23.734375 C 59.523438 23.734375 70.398438 34.609375 70.398438 48.023438 Z M 70.398438 48.023438 "/>
<path style=" stroke:none;fill-rule:nonzero;fill:rgb(81.568627%,80.392157%,88.235294%);fill-opacity:1;" d="M 62.816406 56.613281 C 62.816406 64.738281 56.230469 71.324219 48.105469 71.324219 C 39.980469 71.324219 33.394531 64.738281 33.394531 56.613281 C 33.394531 48.488281 39.980469 41.902344 48.105469 41.902344 C 56.230469 41.902344 62.816406 48.488281 62.816406 56.613281 Z M 62.816406 56.613281 "/>
<path style=" stroke:none;fill-rule:nonzero;fill:rgb(81.568627%,80.392157%,88.235294%);fill-opacity:1;" d="M 81.695312 84.808594 L 81.679688 84.8125 L 78.257812 85.632812 L 71.132812 87.34375 L 70.160156 87.578125 L 59.328125 90.175781 L 58.40625 90.398438 L 32.121094 96.707031 C 30.34375 96.027344 28.609375 95.246094 26.921875 94.367188 C 26.90625 94.355469 26.886719 94.347656 26.871094 94.339844 C 26.773438 94.289062 26.679688 94.238281 26.585938 94.1875 C 26.378906 94.078125 26.167969 93.96875 25.964844 93.855469 C 24.785156 93.207031 23.640625 92.515625 22.523438 91.78125 C 22.238281 91.589844 21.953125 91.402344 21.671875 91.207031 C 21.582031 91.144531 21.492188 91.082031 21.40625 91.019531 C 21.3125 90.957031 21.21875 90.890625 21.128906 90.824219 C 20.882812 90.652344 20.640625 90.476562 20.398438 90.300781 C 22.953125 85.660156 29.03125 82.574219 35.113281 80.886719 C 39.703125 79.613281 40.710938 75.421875 40.621094 71.691406 C 40.601562 70.839844 40.527344 69.992188 40.40625 69.152344 C 40.222656 67.808594 39.925781 66.488281 39.523438 65.195312 L 54.238281 65.6875 L 55.753906 69.183594 C 55.714844 69.566406 55.699219 69.953125 55.714844 70.339844 C 55.828125 73.207031 57.601562 75.0625 59.785156 76.261719 C 60.070312 76.414062 60.359375 76.5625 60.65625 76.695312 C 64.238281 78.324219 68.457031 78.433594 68.457031 78.433594 C 69.742188 78.292969 71.039062 78.316406 72.316406 78.507812 C 72.628906 78.554688 72.929688 78.613281 73.222656 78.675781 C 74.933594 79.058594 76.546875 79.78125 77.972656 80.804688 C 78.515625 81.191406 79.03125 81.617188 79.511719 82.078125 C 80.367188 82.878906 81.101562 83.800781 81.695312 84.808594 Z M 81.695312 84.808594 "/>
<path style=" stroke:none;fill-rule:nonzero;fill:rgb(81.568627%,80.392157%,88.235294%);fill-opacity:1;" d="M 83.902344 86.75 C 83.839844 86.804688 83.78125 86.863281 83.71875 86.921875 C 82.414062 88.109375 81.050781 89.230469 79.628906 90.277344 C 78.671875 90.984375 77.695312 91.652344 76.6875 92.289062 C 76.46875 92.429688 76.246094 92.566406 76.023438 92.703125 C 75.636719 92.9375 75.246094 93.171875 74.851562 93.394531 C 74.335938 93.691406 73.816406 93.980469 73.285156 94.257812 C 73.074219 94.371094 72.859375 94.480469 72.644531 94.589844 C 72.332031 94.75 72.015625 94.90625 71.699219 95.058594 C 71.644531 95.085938 71.589844 95.109375 71.535156 95.136719 L 70.910156 94.617188 L 78.257812 85.632812 L 79.734375 83.828125 C 79.734375 83.828125 80.324219 83.828125 81.679688 84.8125 C 82.425781 85.371094 83.132812 85.980469 83.792969 86.640625 C 83.828125 86.675781 83.867188 86.710938 83.902344 86.75 Z M 83.902344 86.75 "/>
<path style=" stroke:none;fill-rule:nonzero;fill:rgb(18.431373%,18.039216%,25.490196%);fill-opacity:1;" d="M 83.800781 86.648438 C 83.78125 86.742188 83.753906 86.832031 83.71875 86.921875 C 82.414062 88.109375 81.050781 89.230469 79.628906 90.277344 C 78.394531 90.722656 77.113281 91.027344 75.8125 91.183594 C 75.8125 91.183594 75.921875 91.742188 76.023438 92.703125 C 75.636719 92.9375 75.246094 93.171875 74.851562 93.394531 C 74.335938 93.691406 73.816406 93.980469 73.285156 94.257812 C 73.074219 94.371094 72.859375 94.480469 72.644531 94.589844 C 72.332031 94.75 72.015625 94.90625 71.699219 95.058594 C 71.644531 95.085938 71.589844 95.109375 71.535156 95.136719 C 71.328125 95.238281 71.117188 95.335938 70.90625 95.433594 C 68.171875 96.695312 65.324219 97.703125 62.40625 98.449219 C 62.390625 98.453125 62.375 98.457031 62.359375 98.460938 C 62.167969 98.507812 61.976562 98.554688 61.785156 98.601562 C 61.640625 98.636719 61.496094 98.671875 61.351562 98.703125 C 61.332031 98.710938 61.3125 98.714844 61.296875 98.71875 C 61 98.785156 60.703125 98.855469 60.402344 98.914062 C 60.230469 98.949219 60.0625 98.984375 59.894531 99.019531 C 59.792969 99.042969 59.6875 99.0625 59.585938 99.078125 C 59.457031 99.105469 59.332031 99.128906 59.203125 99.152344 C 59.132812 99.167969 59.0625 99.179688 58.988281 99.191406 C 58.824219 99.222656 58.664062 99.25 58.5 99.28125 C 58.226562 99.328125 57.949219 99.371094 57.671875 99.414062 C 57.46875 99.445312 57.269531 99.476562 57.070312 99.503906 C 56.832031 99.535156 56.597656 99.566406 56.359375 99.597656 C 56.292969 99.609375 56.226562 99.617188 56.164062 99.621094 C 56.078125 99.632812 55.992188 99.644531 55.910156 99.652344 C 55.738281 99.675781 55.570312 99.695312 55.398438 99.710938 C 55.308594 99.722656 55.222656 99.730469 55.132812 99.738281 C 54.964844 99.757812 54.796875 99.773438 54.628906 99.789062 C 54.410156 99.808594 54.191406 99.828125 53.972656 99.84375 C 53.707031 99.867188 53.441406 99.882812 53.175781 99.902344 C 53.003906 99.910156 52.832031 99.921875 52.660156 99.929688 C 52.21875 99.953125 51.777344 99.96875 51.332031 99.980469 C 51.113281 99.988281 50.890625 99.992188 50.667969 99.996094 L 50.664062 99.996094 C 50.445312 100 50.222656 100 50 100 C 47.75 100 45.503906 99.851562 43.277344 99.550781 C 41.640625 99.332031 40.035156 99.035156 38.453125 98.660156 C 38.386719 98.644531 38.324219 98.628906 38.261719 98.613281 C 38.101562 98.578125 37.945312 98.535156 37.785156 98.496094 C 37.644531 98.460938 37.507812 98.425781 37.367188 98.386719 C 33.742188 97.445312 30.238281 96.097656 26.921875 94.367188 C 26.90625 94.355469 26.886719 94.347656 26.871094 94.339844 C 26.773438 94.289062 26.679688 94.238281 26.585938 94.1875 C 34.707031 92.296875 47.535156 89.3125 58.671875 86.757812 C 58.984375 86.683594 59.292969 86.613281 59.601562 86.542969 C 63.714844 85.597656 67.566406 84.71875 70.824219 83.984375 C 71.164062 83.910156 71.492188 83.835938 71.816406 83.761719 C 75.316406 82.976562 78.035156 82.378906 79.511719 82.078125 C 79.910156 81.988281 80.3125 81.917969 80.714844 81.867188 L 83.792969 86.640625 Z M 83.800781 86.648438 "/>
<path style=" stroke:none;fill-rule:nonzero;fill:rgb(18.431373%,18.039216%,25.490196%);fill-opacity:1;" d="M 31.117188 30.453125 C 31.117188 34.449219 27.878906 37.6875 23.882812 37.6875 C 19.886719 37.6875 16.648438 34.449219 16.648438 30.453125 C 16.648438 26.457031 19.886719 23.214844 23.882812 23.214844 C 27.878906 23.214844 31.117188 26.457031 31.117188 30.453125 Z M 31.117188 30.453125 "/>
<path style=" stroke:none;fill-rule:nonzero;fill:rgb(18.431373%,18.039216%,25.490196%);fill-opacity:1;" d="M 75.566406 28.382812 C 75.566406 32.378906 72.328125 35.621094 68.332031 35.621094 C 64.335938 35.621094 61.09375 32.378906 61.09375 28.382812 C 61.09375 24.386719 64.335938 21.148438 68.332031 21.148438 C 72.328125 21.148438 75.566406 24.386719 75.566406 28.382812 Z M 75.566406 28.382812 "/>
<path style=" stroke:none;fill-rule:nonzero;fill:rgb(18.431373%,18.039216%,25.490196%);fill-opacity:1;" d="M 60.578125 25.28125 C 60.578125 21.585938 63.363281 18.484375 67.039062 18.089844 C 64.28125 17.789062 61.59375 19.089844 60.121094 21.441406 C 58.648438 23.789062 58.648438 26.777344 60.121094 29.125 C 61.59375 31.476562 64.28125 32.777344 67.039062 32.476562 C 63.363281 32.078125 60.578125 28.980469 60.578125 25.28125 Z M 60.578125 25.28125 "/>
<path style=" stroke:none;fill-rule:nonzero;fill:rgb(18.431373%,18.039216%,25.490196%);fill-opacity:1;" d="M 15.796875 36.304688 C 13.210938 33.664062 13.03125 29.5 15.378906 26.644531 C 13.199219 28.359375 12.191406 31.167969 12.78125 33.878906 C 13.375 36.589844 15.464844 38.71875 18.160156 39.367188 C 20.859375 40.015625 23.6875 39.066406 25.445312 36.921875 C 22.546875 39.210938 18.386719 38.945312 15.796875 36.304688 Z M 15.796875 36.304688 "/>
<path style=" stroke:none;fill-rule:nonzero;fill:rgb(18.431373%,18.039216%,25.490196%);fill-opacity:1;" d="M 46.105469 36.652344 C 37.542969 36.652344 30.601562 40.703125 30.601562 45.699219 C 30.601562 47.933594 31.996094 49.976562 34.300781 51.554688 L 37.285156 49.390625 L 36.472656 52.78125 C 36.808594 52.933594 37.15625 53.085938 37.511719 53.226562 L 41.972656 48.023438 L 41.972656 54.414062 C 43.339844 54.632812 44.722656 54.742188 46.105469 54.742188 C 54.671875 54.742188 61.613281 50.691406 61.613281 45.699219 C 61.613281 40.703125 54.671875 36.652344 46.105469 36.652344 Z M 46.105469 36.652344 "/>
<path style=" stroke:none;fill-rule:nonzero;fill:rgb(18.431373%,18.039216%,25.490196%);fill-opacity:1;" d="M 61.09375 28.382812 C 61.09375 28.382812 59.972656 33.550781 66.992188 35.621094 Z M 61.09375 28.382812 "/>
<path style=" stroke:none;fill-rule:nonzero;fill:rgb(18.431373%,18.039216%,25.490196%);fill-opacity:1;" d="M 30.601562 29.324219 C 30.601562 29.324219 33.1875 35.101562 25.433594 37.6875 Z M 30.601562 29.324219 "/>
<path style=" stroke:none;fill-rule:nonzero;fill:rgb(81.568627%,80.392157%,88.235294%);fill-opacity:1;" d="M 34.820312 59.226562 C 34.382812 57.660156 33.5 56.539062 32.847656 56.722656 C 32.195312 56.90625 32.023438 58.320312 32.460938 59.886719 C 32.898438 61.453125 33.78125 62.570312 34.433594 62.390625 C 35.085938 62.207031 35.257812 60.789062 34.820312 59.226562 Z M 34.820312 59.226562 "/>
<path style=" stroke:none;fill-rule:nonzero;fill:rgb(81.568627%,80.392157%,88.235294%);fill-opacity:1;" d="M 63.242188 54.167969 C 62.566406 54.125 61.9375 55.40625 61.839844 57.027344 C 61.738281 58.652344 62.207031 60 62.882812 60.042969 C 63.558594 60.082031 64.1875 58.800781 64.285156 57.179688 C 64.386719 55.558594 63.917969 54.210938 63.242188 54.167969 Z M 63.242188 54.167969 "/>
</g>
</svg>
